<?xml version="1.0" standalone="no"?>
<!DOCTYPE svg PUBLIC "-//W3C//DTD SVG 20010904//EN"
 "http://www.w3.org/TR/2001/REC-SVG-20010904/DTD/svg10.dtd">
<svg version="1.0" xmlns="http://www.w3.org/2000/svg"
 width="1500.000000pt" height="1500.000000pt" viewBox="0 0 1500.000000 1500.000000"
 preserveAspectRatio="xMidYMid meet">

<g transform="translate(0.000000,1500.000000) scale(0.100000,-0.100000)"
fill="#000000" stroke="none">
<path d="M7355 12040 c-28 -11 -135 -231 -135 -277 0 -7 -4 -21 -9 -31 -19
-37 -61 -279 -61 -353 0 -35 -1 -36 -51 -47 -28 -7 -64 -12 -80 -12 -16 0 -60
-5 -99 -12 -65 -11 -71 -11 -85 7 -8 11 -15 29 -15 41 0 11 -4 24 -8 30 -4 5
-16 34 -27 64 -23 68 -95 206 -147 283 -66 98 -157 197 -180 197 -25 0 -95
-17 -225 -56 -69 -21 -70 -23 -94 -129 -18 -77 -19 -464 -2 -515 6 -19 14 -52
17 -72 l7 -37 -75 -35 c-42 -20 -78 -36 -82 -36 -7 0 -69 -26 -96 -41 -28 -14
-42 -11 -57 14 -45 72 -163 216 -234 284 -95 91 -236 193 -266 193 -27 0 -115
-45 -201 -102 l-65 -43 0 -100 c0 -55 6 -125 12 -155 7 -30 15 -68 18 -85 4
-16 10 -39 14 -50 5 -11 16 -45 26 -75 10 -30 37 -97 61 -149 48 -103 49 -107
32 -114 -7 -3 -55 -39 -106 -81 -52 -42 -98 -76 -104 -76 -5 0 -35 23 -66 51
-106 95 -281 201 -432 261 -14 6 -32 14 -41 18 -9 5 -37 11 -62 15 l-46 7
-106 -104 c-104 -102 -107 -106 -100 -139 28 -145 194 -446 304 -554 23 -21
41 -46 41 -55 -1 -8 -20 -40 -43 -71 -104 -138 -127 -168 -137 -174 -6 -4 -43
9 -83 28 -110 53 -139 65 -214 87 -156 46 -176 50 -309 57 l-102 5 -25 -34
c-28 -38 -56 -85 -103 -177 l-33 -65 62 -90 c59 -86 199 -237 281 -304 22 -18
68 -51 102 -75 35 -23 64 -48 64 -55 0 -14 -45 -131 -86 -220 -20 -43 -28 -52
-42 -47 -83 35 -443 52 -567 26 -140 -28 -142 -29 -163 -91 -22 -62 -36 -111
-53 -188 l-13 -52 35 -36 c96 -100 284 -220 439 -279 25 -9 53 -21 62 -26 10
-5 24 -9 31 -9 7 0 26 -6 41 -12 26 -12 27 -15 21 -63 -3 -27 -10 -81 -15
-120 -4 -38 -11 -85 -15 -102 -7 -32 -8 -33 -64 -33 -72 0 -266 -33 -351 -60
-146 -47 -269 -107 -287 -142 -14 -25 -18 -275 -5 -294 20 -31 247 -134 294
-134 9 0 19 -4 22 -9 3 -5 20 -11 38 -14 18 -3 74 -13 123 -21 50 -8 110 -16
135 -16 67 -1 87 -9 94 -38 7 -28 23 -140 32 -227 7 -57 19 -46 -126 -101 -41
-16 -104 -44 -140 -63 -36 -19 -75 -39 -87 -45 -13 -6 -23 -14 -23 -18 0 -5
-5 -8 -11 -8 -15 0 -145 -99 -197 -151 -33 -32 -42 -47 -37 -63 3 -12 8 -37
11 -56 3 -19 9 -44 13 -55 5 -11 18 -52 30 -91 22 -75 34 -87 101 -99 74 -13
162 -20 166 -13 2 4 45 122 94 263 49 140 96 267 104 283 18 34 51 65 95 87
71 36 201 1 230 -61 l9 -21 63 30 c40 19 84 31 124 35 l62 4 -9 42 c-42 203
-55 304 -70 543 -12 195 -3 464 22 643 6 41 12 91 15 110 9 74 16 116 25 150
5 19 21 85 35 145 14 61 30 118 35 127 6 10 10 25 10 33 0 8 4 23 9 33 5 9 17
42 26 72 10 30 24 64 31 75 6 11 15 31 19 45 4 14 21 53 36 88 16 34 29 65 29
68 0 10 110 225 148 289 76 129 210 326 301 440 157 197 418 451 612 594 30
22 59 45 66 51 7 5 75 50 152 100 197 127 412 239 586 305 55 20 109 41 120
46 38 15 140 48 180 58 22 5 58 15 80 21 134 38 270 63 495 92 124 16 615 16
740 0 224 -29 357 -53 490 -90 19 -6 60 -17 90 -25 93 -26 267 -86 328 -114
401 -181 652 -335 922 -562 169 -142 395 -382 542 -576 129 -170 291 -448 378
-650 12 -27 28 -63 35 -80 7 -16 25 -64 40 -105 15 -41 30 -84 35 -95 15 -36
45 -138 81 -275 13 -50 46 -214 58 -290 27 -168 32 -229 38 -430 8 -338 -23
-634 -98 -935 -6 -22 -15 -69 -21 -105 -6 -36 -15 -68 -21 -72 -6 -4 2 -10 19
-13 16 -4 35 -8 42 -11 23 -7 13 -82 -27 -196 -184 -536 -547 -1571 -563
-1604 -22 -48 -69 -99 -112 -121 -32 -17 -109 -23 -138 -11 -20 8 -24 60 -9
101 9 24 8 25 -40 29 -44 5 -56 11 -94 51 -54 57 -64 106 -42 193 9 33 19 68
23 79 6 15 -3 11 -32 -15 -160 -139 -312 -257 -423 -325 -9 -5 -18 -12 -21
-16 -24 -26 -376 -216 -467 -252 -23 -9 -61 -25 -85 -36 -118 -52 -314 -116
-478 -155 -63 -16 -131 -32 -150 -37 -19 -4 -87 -15 -150 -24 -63 -9 -145 -20
-182 -25 -91 -13 -584 -13 -683 1 -152 20 -280 40 -330 50 -211 45 -441 115
-627 193 -96 39 -400 185 -408 195 -3 3 -17 12 -31 20 -23 11 -36 11 -91 -3
-205 -51 -428 -40 -587 30 -29 13 -58 24 -63 24 -6 0 -39 20 -75 45 -35 25
-66 45 -67 45 -2 0 -26 -18 -52 -40 -70 -58 -175 -107 -274 -126 -83 -16 -172
-12 -282 12 -22 5 -29 2 -34 -12 -6 -19 -12 -36 -33 -87 -27 -67 -18 -85 92
-195 l102 -103 45 6 c25 4 49 11 55 16 5 5 15 9 22 9 11 0 108 41 173 74 86
44 202 122 298 203 29 25 58 42 65 39 24 -12 211 -163 221 -179 8 -12 5 -26
-11 -54 -80 -143 -140 -359 -159 -580 l-7 -72 48 -33 c25 -18 88 -55 138 -81
83 -44 93 -47 117 -35 121 62 338 267 430 405 30 45 61 84 68 87 10 5 109 -29
187 -63 11 -5 35 -15 53 -23 28 -11 32 -17 27 -38 -3 -14 -10 -48 -15 -77 -4
-28 -11 -56 -14 -62 -11 -18 -7 -373 5 -425 32 -145 28 -138 110 -165 41 -13
82 -28 91 -32 10 -5 28 -9 41 -9 13 0 39 -5 57 -11 32 -12 34 -11 90 47 31 32
81 95 111 139 57 82 159 281 159 309 0 8 5 18 10 21 6 3 10 17 10 30 0 13 5
27 10 30 6 3 10 16 10 27 0 19 4 20 53 14 274 -37 261 -33 264 -76 5 -69 25
-216 35 -255 23 -92 32 -123 55 -190 32 -91 80 -185 105 -208 17 -14 41 -17
148 -17 71 0 139 4 152 9 70 26 198 424 198 615 0 33 4 66 8 73 7 11 65 24
199 43 97 14 103 13 103 -9 0 -11 5 -23 10 -26 6 -3 10 -17 10 -30 0 -13 5
-27 10 -30 6 -3 10 -13 10 -22 0 -27 102 -226 158 -308 31 -44 81 -107 112
-139 l58 -59 48 12 c89 22 128 33 189 52 67 21 65 18 93 154 26 123 22 365 -8
510 -17 80 -17 85 10 100 30 16 106 50 163 72 23 9 46 20 52 25 24 21 47 4
107 -84 63 -93 197 -236 278 -300 79 -61 154 -108 173 -108 24 0 144 62 214
109 l53 36 0 104 c0 58 -4 118 -9 135 -5 17 -17 65 -26 106 -21 96 -45 160
-109 302 -14 31 -26 61 -26 67 0 5 32 33 71 63 40 29 88 65 108 80 20 15 42
27 50 28 7 0 39 -22 70 -49 106 -92 308 -213 436 -261 130 -50 132 -49 258 80
92 93 97 105 76 171 -51 161 -167 367 -284 503 -25 29 -45 59 -45 66 0 7 31
54 69 104 37 50 74 101 82 114 18 28 22 28 94 -7 33 -16 78 -36 100 -46 22 -9
50 -22 63 -28 14 -6 26 -7 31 -1 5 5 50 128 100 274 51 146 98 282 106 303 8
20 15 41 15 46 0 5 -22 23 -49 40 -67 44 -85 65 -73 88 15 26 52 112 52 118 0
3 12 33 27 66 25 56 29 60 53 54 14 -4 45 -8 68 -9 43 -1 44 0 62 46 9 25 20
58 24 72 l6 26 -140 0 c-114 0 -142 3 -146 15 -8 20 32 88 64 108 26 16 25 16
-57 17 -66 0 -90 4 -116 20 -64 39 -85 135 -43 196 47 68 49 68 398 74 l315 5
-45 21 c-25 11 -61 27 -80 34 -19 7 -39 17 -44 22 -6 4 -20 8 -32 8 -13 0 -26
5 -29 10 -3 6 -15 10 -26 10 -13 0 -19 7 -19 23 0 45 30 249 40 266 7 15 27
19 112 24 169 10 367 63 518 141 52 26 66 39 71 62 9 38 9 243 1 271 -9 29
-78 72 -172 107 -41 16 -84 32 -95 36 -20 8 -59 19 -146 40 -26 7 -100 17
-165 24 l-119 11 -12 35 c-7 19 -12 50 -12 69 -1 19 -6 63 -12 98 -13 76 -6
113 21 113 21 0 25 2 190 71 130 55 370 222 400 279 7 14 -4 82 -29 170 -36
132 -44 145 -94 153 -234 41 -319 44 -487 21 -63 -9 -133 -18 -156 -21 l-41
-5 -55 134 -56 133 26 20 c14 11 62 47 106 80 90 66 202 173 262 250 21 28 41
52 45 55 6 6 50 77 64 105 9 16 2 37 -37 110 -26 50 -62 110 -80 135 -31 42
-37 45 -78 44 -61 -1 -167 -13 -210 -24 -19 -4 -69 -16 -110 -26 -41 -9 -82
-21 -90 -25 -8 -4 -46 -19 -85 -34 -38 -15 -85 -35 -103 -46 -57 -33 -65 -28
-158 96 -47 64 -84 120 -82 125 2 5 21 28 44 52 111 118 236 330 288 491 25
76 21 92 -36 154 -64 68 -135 135 -155 147 -15 8 -71 -3 -123 -26 -14 -6 -34
-14 -45 -18 -115 -44 -296 -155 -407 -251 l-69 -60 -33 28 c-18 15 -57 46 -86
68 -29 22 -68 54 -86 70 l-34 30 35 70 c90 181 136 352 151 550 l6 80 -45 33
c-25 17 -50 32 -55 32 -6 0 -12 4 -14 8 -4 11 -146 82 -164 82 -17 0 -142 -80
-192 -122 -83 -71 -208 -208 -265 -290 -34 -49 -64 -88 -68 -88 -6 0 -115 44
-182 74 -21 9 -53 23 -73 32 -26 12 -34 20 -29 32 42 110 57 470 25 594 -32
121 -28 115 -89 136 -63 22 -111 35 -189 54 l-54 12 -47 -49 c-73 -76 -176
-232 -232 -349 -27 -58 -49 -112 -49 -120 0 -8 -4 -18 -10 -21 -5 -3 -10 -14
-10 -24 0 -9 -6 -30 -12 -45 -12 -26 -16 -27 -58 -21 -25 3 -79 10 -120 14
-134 16 -140 18 -140 60 0 43 -25 215 -41 286 -36 155 -127 361 -166 376 -30
11 -260 11 -288 -1z"/>
<path d="M7200 10586 c-605 -60 -1161 -285 -1631 -657 -134 -106 -394 -366
-497 -496 -548 -695 -775 -1570 -631 -2440 29 -176 74 -354 92 -365 38 -21 88
-109 133 -233 13 -36 22 30 23 178 l1 137 83 54 c86 56 268 153 326 173 l34
12 -72 77 c-214 225 -327 556 -293 857 28 253 121 450 301 639 99 105 158 151
264 206 375 197 844 153 1174 -111 118 -94 230 -234 292 -368 l36 -77 65 40
c105 65 207 108 330 141 106 28 128 30 280 30 153 0 174 -2 284 -31 115 -30
262 -93 339 -146 21 -14 41 -26 45 -26 4 0 20 26 34 58 93 201 273 386 474
489 193 98 330 128 544 120 160 -7 260 -29 392 -88 134 -60 219 -122 333 -241
144 -151 231 -310 282 -515 21 -87 24 -351 4 -438 -22 -97 -67 -221 -107 -293
-20 -37 -46 -84 -58 -106 -12 -21 -58 -78 -104 -127 -45 -48 -79 -90 -74 -93
5 -3 35 -15 68 -27 32 -12 61 -25 64 -28 3 -3 30 -19 60 -35 30 -15 92 -51
138 -80 l82 -51 1 -155 0 -155 34 95 c49 135 83 197 124 228 20 14 37 27 38
27 6 3 45 206 58 300 71 501 13 1045 -161 1512 -208 560 -564 1038 -1037 1396
-172 129 -314 216 -505 310 -307 150 -630 247 -977 293 -165 21 -516 26 -685
10z"/>
<path d="M4110 6419 c0 -5 5 -7 10 -4 6 3 10 8 10 11 0 2 -4 4 -10 4 -5 0 -10
-5 -10 -11z"/>
<path d="M11812 6238 c-27 -77 -27 -76 2 -71 24 5 36 23 55 82 15 47 14 51
-12 51 -18 0 -26 -11 -45 -62z"/>
<path d="M4150 6281 c-78 -17 -154 -72 -206 -151 -27 -40 -27 -42 -11 -75 13
-27 23 -35 43 -35 14 0 53 -7 85 -15 53 -14 61 -14 83 0 28 19 69 76 90 125
17 43 36 139 27 144 -15 10 -79 14 -111 7z"/>
<path d="M4541 5718 c-28 -25 -32 -33 -23 -47 94 -132 100 -255 22 -452 -22
-55 -40 -106 -40 -115 0 -9 9 -27 20 -42 l20 -25 42 44 42 44 1 130 c0 121 2
137 35 233 23 70 31 107 25 116 -6 7 -30 42 -54 79 -25 37 -47 67 -50 67 -3 0
-21 -15 -40 -32z"/>
<path d="M3671 5383 l-73 -206 20 -36 21 -36 113 1 c124 1 208 11 208 26 0 5
27 79 60 165 33 85 60 161 60 168 0 10 -9 10 -47 -1 -59 -18 -144 -18 -187 0
-39 16 -75 59 -83 98 -3 16 -8 28 -12 28 -3 0 -39 -93 -80 -207z"/>
<path d="M5208 5516 l-27 -75 122 -124 c67 -68 164 -158 215 -200 l93 -77 51
26 c29 14 85 59 125 98 l73 72 0 64 c1 66 13 180 25 236 l7 31 -44 -1 c-64 -1
-462 13 -543 20 l-71 6 -26 -76z"/>
<path d="M9264 5560 c16 -5 45 -5 65 -1 32 8 29 9 -29 9 -52 0 -59 -1 -36 -8z"/>
<path d="M9135 5089 c-6 -18 -19 -23 -126 -49 l-45 -11 -50 -146 c-27 -81 -51
-151 -53 -156 -5 -12 185 88 289 152 41 26 114 76 162 111 l87 65 -76 8 c-41
4 -100 16 -129 26 -52 17 -54 17 -59 0z"/>
<path d="M6027 4986 c-20 -24 -59 -61 -87 -82 -54 -41 -58 -49 -34 -58 18 -7
96 68 139 132 38 57 28 61 -18 8z"/>
<path d="M6186 4935 c-24 -33 -67 -83 -96 -111 l-52 -51 24 -15 c61 -40 309
-146 453 -193 334 -111 620 -157 970 -157 325 -1 601 37 890 123 181 53 179
52 197 110 14 48 14 49 -7 49 -37 0 -89 21 -118 49 -47 43 -60 77 -54 143 4
50 3 58 -11 58 -10 -1 -33 -26 -52 -56 -104 -165 -317 -294 -536 -325 -257
-36 -571 97 -661 279 -20 39 -36 59 -53 64 -14 3 -142 16 -285 28 -143 12
-329 31 -413 44 l-153 22 -43 -61z"/>
<path d="M4735 4828 c-21 -18 -70 -50 -109 -71 l-71 -38 53 4 c78 6 195 91
173 125 -5 8 -20 1 -46 -20z"/>
</g>
</svg>
